:FULLY-SPECIFIED
:FORCE-ALL-JOINTS-BE-3DOF
:DEGREES
469
root 10.879 17.3965 29.4898 3.96302 4.2599 2.83725
lfemur -8.07355 2.51365 -28.456
ltibia 22.8202 0 0
lfoot -17.4931 3.76325 0
ltoes 3.6228 0 0
rfemur -32.9003 1.0356 16.0435
rtibia 49.7187 0 0
rfoot -19.692 -10.2674 0
rtoes -15.5613 0 0
lowerback -5.03122 -3.99369 -3.98758
upperback 0.334177 -5.14983 1.89943
thorax 3.69149 -2.65966 3.7568
lowerneck -22.6679 -2.84124 -10.1326
upperneck 24.3775 -3.29681 10.08
head 12.1411 -1.10636 4.99331
lclavicle -9.24349e-15 -2.38542e-15 0
lhumerus -12.1175 -19.6735 84.8937
lradius 27.2561 0 0
lwrist 5.09789 0 0
lhand -14.7232 -24.6897 0
lfingers 7.12502 0 0
lthumb 11.4317 4.97865 0
rclavicle -9.24349e-15 -2.38542e-15 0
rhumerus -45.3748 10.5343 -86.5254
rradius 38.7962 0 0
rwrist -19.863 0 0
rhand -25.1514 -40.542 0
rfingers 7.12502 0 0
rthumb 1.36532 -70.5174 0
470
root 10.8839 17.3943 29.6475 3.93791 4.35828 2.87602
lfemur -6.82872 2.4436 -28.4433
ltibia 21.696 0 0
lfoot -17.5011 3.7837 0
ltoes 3.73349 0 0
rfemur -33.5194 1.44422 15.8288
rtibia 47.854 0 0
rfoot -19.8237 -10.2417 0
rtoes -15.5328 0 0
lowerback -5.07056 -4.08176 -3.96967
upperback 0.420053 -5.26647 1.88957
thorax 3.81052 -2.72071 3.71992
lowerneck -22.7297 -2.82238 -10.0651
upperneck 24.3922 -3.28103 10.0518
head 12.1553 -1.09528 4.97439
lclavicle -8.81909e-15 -3.09405e-15 0
lhumerus -11.4576 -19.9143 84.6072
lradius 27.7345 0 0
lwrist 5.60025 0 0
lhand -14.9688 -24.8054 0
lfingers 7.12502 0 0
lthumb 11.1948 4.8758 0
rclavicle -8.81909e-15 -3.09405e-15 0
rhumerus -45.5414 10.402 -86.4492
rradius 38.8824 0 0
rwrist -20.0589 0 0
rhand -25.2997 -39.9835 0
rfingers 7.12502 0 0
rthumb 1.22205 -69.9641 0
471
root 10.8906 17.3899 29.8501 3.93844 4.42432 2.93616
lfemur -5.20221 2.37225 -28.4457
ltibia 20.1259 0 0
lfoot -17.4716 3.81971 0
ltoes 3.97984 0 0
rfemur -34.2389 1.96808 15.5193
rtibia 45.4424 0 0
rfoot -19.8819 -10.0507 0
rtoes -15.6045 0 0
lowerback -5.11928 -4.15254 -3.91246
upperback 0.470376 -5.36133 1.85936
thorax 3.8909 -2.76853 3.64196
lowerneck -22.7402 -2.7971 -10.0012
upperneck 24.4454 -3.25915 10.011
head 12.1734 -1.08496 4.95344
lclavicle -6.29209e-15 -2.88607e-15 0
lhumerus -10.7834 -20.1931 84.3312
lradius 28.317 0 0
lwrist 6.09963 0 0
lhand -15.2675 -24.937 0
lfingers 7.12502 0 0
lthumb 10.9067 4.75927 0
rclavicle -6.29209e-15 -2.88607e-15 0
rhumerus -45.8772 10.2006 -86.3674
rradius 38.9612 0 0
rwrist -20.2443 0 0
rhand -26.2861 -37.7346 0
rfingers 7.12502 0 0
rthumb 0.269351 -67.7118 0
472
root 10.8976 17.3849 30.0543 3.95306 4.46525 3.00009
lfemur -3.55568 2.30486 -28.4565
ltibia 18.4994 0 0
lfoot -17.4317 3.86098 0
ltoes 4.28607 0 0
rfemur -34.9279 2.48924 15.1953
rtibia 42.9943 0 0
rfoot -19.8848 -9.79024 0
rtoes -15.7579 0 0
lowerback -5.16092 -4.20331 -3.8338
upperback 0.489181 -5.43075 1.81985
thorax 3.92965 -2.80186 3.54612
lowerneck -22.7116 -2.77259 -9.9488
upperneck 24.5167 -3.23832 9.96636
head 12.1911 -1.07777 4.93315
lclavicle -2.62381e-15 -2.23633e-15 0
lhumerus -10.1839 -20.4618 84.0952
lradius 28.8898 0 0
lwrist 6.53769 0 0
lhand -15.557 -25.0638 0
lfingers 7.12502 0 0
lthumb 10.6274 4.64685 0
rclavicle -2.62381e-15 -2.23633e-15 0
rhumerus -46.2813 9.97973 -86.293
rradius 39.0276 0 0
rwrist -20.406 0 0
rhand -27.6778 -34.7057 0
rfingers 7.12502 0 0
rthumb -1.07473 -64.6749 0
473
root 10.9037 17.3808 30.2168 3.97026 4.48832 3.05022
lfemur -2.25079 2.24666 -28.4684
ltibia 17.2063 0 0
lfoot -17.408 3.89725 0
ltoes 4.57643 0 0
rfemur -35.4553 2.88974 14.9372
rtibia 41.0201 0 0
rfoot -19.8503 -9.55597 0
rtoes -15.9747 0 0
lowerback -5.17901 -4.23139 -3.75151
upperback 0.480503 -5.47111 1.78207
thorax 3.92375 -2.81947 3.4556
lowerneck -22.6562 -2.75603 -9.91545
upperneck 24.5855 -3.22571 9.92634
head 12.2039 -1.07604 4.91621
lclavicle 1.22446e-15 -1.61973e-15 0
lhumerus -9.74822 -20.6725 83.9283
lradius 29.3388 0 0
lwrist 6.85608 0 0
lhand -15.7747 -25.1651 0
lfingers 7.12502 0 0
lthumb 10.4174 4.5563 0
rclavicle 1.22446e-15 -1.61973e-15 0
rhumerus -46.6529 9.78916 -86.2388
rradius 39.0763 0 0
rwrist -20.5307 0 0
rhand -29.0419 -31.8073 0
rfingers 7.12502 0 0
rthumb -2.39215 -61.7674 0
474
root 10.9077 17.3792 30.2941 3.97849 4.50079 3.06899
lfemur -1.64922 2.20291 -28.4747
ltibia 16.636 0 0
lfoot -17.4274 3.91824 0
ltoes 4.77512 0 0
rfemur -35.6902 3.05166 14.8255
rtibia 40.0301 0 0
rfoot -19.7967 -9.44372 0
rtoes -16.2365 0 0
lowerback -5.15709 -4.23406 -3.68342
upperback 0.448377 -5.47878 1.75706
thorax 3.87021 -2.82009 3.3936
lowerneck -22.5862 -2.75461 -9.90891
upperneck 24.6316 -3.22845 9.89952
head 12.2077 -1.08212 4.90532
lclavicle 4.29139e-15 -1.51113e-15 0
lhumerus -9.56537 -20.7773 83.8601
lradius 29.5501 0 0
lwrist 6.99648 0 0
lhand -15.8581 -25.2202 0
lfingers 7.12502 0 0
lthumb 10.337 4.50541 0
rclavicle 4.29139e-15 -1.51113e-15 0
rhumerus -46.891 9.67856 -86.2177
rradius 39.1022 0 0
rwrist -20.6051 0 0
rhand -29.9456 -29.9497 0
rfingers 7.12502 0 0
rthumb -3.26487 -59.9037 0
475
root 10.9082 17.3816 30.2428 3.96623 4.50989 3.0388
lfemur -2.11262 2.17883 -28.4682
ltibia 17.1781 0 0
lfoot -17.5169 3.91365 0
ltoes 4.80639 0 0
rfemur -35.5016 2.85703 14.9403
rtibia 40.5348 0 0
rfoot -19.7419 -9.54925 0
rtoes -16.5249 0 0
lowerback -5.07869 -4.20861 -3.64736
upperback 0.396839 -5.45011 1.75584
thorax 3.76602 -2.80249 3.38331
lowerneck -22.514 -2.77552 -9.93688
upperneck 24.6344 -3.25372 9.89448
head 12.198 -1.09836 4.90318
lclavicle 5.61567e-15 -2.38542e-15 0
lhumerus -9.72438 -20.7282 83.9197
lradius 29.4099 0 0
lwrist 6.90053 0 0
lhand -15.7448 -25.2085 0
lfingers 7.12502 0 0
lthumb 10.4463 4.51195 0
rclavicle 5.61567e-15 -2.38542e-15 0
rhumerus -46.8949 9.69762 -86.2426
rradius 39.1002 0 0
rwrist -20.6159 0 0
rhand -29.9559 -30.0434 0
rfingers 7.12502 0 0
rthumb -3.27484 -59.998 0
476
root 10.9082 17.3735 30.4121 4.013 4.47259 3.14064
lfemur -0.61463 2.22623 -28.5044
ltibia 15.4526 0 0
lfoot -17.2698 3.94363 0
ltoes 4.80902 0 0
rfemur -36.077 3.46418 14.549
rtibia 38.8274 0 0
rfoot -19.8624 -9.1842 0
rtoes -15.9847 0 0
lowerback -5.26962 -4.26276 -3.71332
upperback 0.492473 -5.5098 1.739
thorax 3.98431 -2.83853 3.37713
lowerneck -22.6378 -2.72119 -9.87176
upperneck 24.6536 -3.19024 9.89612
head 12.221 -1.06102 4.90566
lclavicle 4.81132e-15 -4.60149e-17 0
lhumerus -9.32828 -20.8988 83.7845
lradius 29.86 0 0
lwrist 7.14383 0 0
lhand -16.0654 -25.2643 0
lfingers 7.12502 0 0
lthumb 10.137 4.47078 0
rclavicle 4.81132e-15 -4.60149e-17 0
rhumerus -47.032 9.58634 -86.173
rradius 39.0873 0 0
rwrist -20.5903 0 0
rhand -30.5323 -28.5701 0
rfingers 7.12502 0 0
rthumb -3.83147 -58.5176 0
477
root 10.9057 17.3614 30.6291 4.08771 4.39547 3.29567
lfemur 1.35761 2.32465 -28.5677
ltibia 13.0919 0 0
lfoot -16.868 3.98406 0
ltoes 4.70563 0 0
rfemur -36.8116 4.31974 13.9845
rtibia 36.792 0 0
rfoot -20.0739 -8.65982 0
rtoes -15.0901 0 0
lowerback -5.569 -4.33402 -3.85094
upperback 0.637583 -5.58318 1.72048
thorax 4.32367 -2.8857 3.3967
lowerneck -22.8396 -2.63988 -9.78382
upperneck 24.6629 -3.09306 9.91313
head 12.2513 -1.00263 4.91645
lclavicle 2.85292e-15 3.47506e-15 0
lhumerus -8.89363 -21.0992 83.6509
lradius 30.4246 0 0
lwrist 7.38989 0 0
lhand -16.5 -25.3199 0
lfingers 7.12502 0 0
lthumb 9.71765 4.43451 0
rclavicle 2.85292e-15 3.47506e-15 0
rhumerus -47.1432 9.46726 -86.0818
rradius 39.0332 0 0
rwrist -20.4902 0 0
rhand -31.0742 -27.0263 0
rfingers 7.12502 0 0
rthumb -4.3548 -56.9645 0
478
root 10.9022 17.3484 30.8477 4.17103 4.30119 3.45967
lfemur 3.37083 2.44582 -28.6354
ltibia 10.6353 0 0
lfoot -16.4204 4.02307 0
ltoes 4.56239 0 0
rfemur -37.5496 5.21152 13.3963
rtibia 34.7928 0 0
rfoot -20.299 -8.09322 0
rtoes -14.0435 0 0
lowerback -5.90312 -4.40681 -4.01217
upperback 0.799178 -5.6559 1.70514
thorax 4.7024 -2.93398 3.42925
lowerneck -23.0731 -2.55074 -9.69082
upperneck 24.6664 -2.9853 9.93754
head 12.2844 -0.937314 4.9312
lclavicle 2.483e-17 7.50413e-15 0
lhumerus -8.47206 -21.2883 83.527
lradius 30.9877 0 0
lwrist 7.61366 0 0
lhand -16.9554 -25.364 0
lfingers 7.12502 0 0
lthumb 9.27829 4.41043 0
rclavicle 2.483e-17 7.50413e-15 0
rhumerus -47.2189 9.36117 -85.9889
rradius 38.9682 0 0
rwrist -20.3568 0 0
rhand -31.5428 -25.6082 0
rfingers 7.12502 0 0
rthumb -4.80727 -55.5364 0
479
root 10.8989 17.3379 31.0214 4.24362 4.21239 3.58844
lfemur 4.99178 2.56152 -28.6848
ltibia 8.6219 0 0
lfoot -16.0359 4.04878 0
ltoes 4.44546 0 0
rfemur -38.1354 5.92731 12.9339
rtibia 33.1939 0 0
rfoot -20.4605 -7.60153 0
rtoes -13.0471 0 0
lowerback -6.19827 -4.46555 -4.14893
upperback 0.944268 -5.71358 1.69788
thorax 5.03877 -2.97335 3.46202
lowerneck -23.2919 -2.47289 -9.61052
upperneck 24.6683 -2.89009 9.96139
head 12.3158 -0.879204 4.94557
lclavicle -3.38857e-15 1.13676e-14 0
lhumerus -8.11518 -21.4251 83.4208
lradius 31.4328 0 0
lwrist 7.79008 0 0
lhand -17.3383 -25.3854 0
lfingers 7.12502 0 0
lthumb 8.90888 4.40587 0
rclavicle -3.38857e-15 1.13676e-14 0
rhumerus -47.2496 9.28889 -85.9142
rradius 38.9224 0 0
rwrist -20.2312 0 0
rhand -31.8991 -24.5118 0
rfingers 7.12502 0 0
rthumb -5.15128 -54.4312 0
